<?xml version="1.0" encoding="UTF-8" standalone="no"?>
<!-- Created with Inkscape (http://www.inkscape.org/) -->

<svg
   width="148.77965mm"
   height="17.744915mm"
   viewBox="0 0 148.77965 17.744915"
   version="1.1"
   id="svg1"
   xml:space="preserve"
   xmlns:inkscape="http://www.inkscape.org/namespaces/inkscape"
   xmlns:sodipodi="http://sodipodi.sourceforge.net/DTD/sodipodi-0.dtd"
   xmlns="http://www.w3.org/2000/svg"
   xmlns:svg="http://www.w3.org/2000/svg"><sodipodi:namedview
     id="namedview1"
     pagecolor="#505050"
     bordercolor="#eeeeee"
     borderopacity="1"
     inkscape:showpageshadow="0"
     inkscape:pageopacity="0"
     inkscape:pagecheckerboard="0"
     inkscape:deskcolor="#505050"
     inkscape:document-units="mm" /><defs
     id="defs1" /><g
     inkscape:label="Layer 1"
     inkscape:groupmode="layer"
     id="layer1"
     transform="translate(-8.9650147,-8.5381086)"><path
       style="fill:#000000"
       d="m 55.754275,26.250261 c -0.167546,-0.03223 -0.743296,-0.172753 -1.279445,-0.312279 -0.536149,-0.139526 -1.139316,-0.33422 -1.340372,-0.432654 -0.201055,-0.09843 -0.628646,-0.39764 -0.950201,-0.664903 -0.442797,-0.368033 -0.69087,-0.485932 -1.022461,-0.485932 h -0.437815 l 0.308967,-0.261981 c 0.249368,-0.211447 0.322898,-0.409475 0.381189,-1.026613 0.03972,-0.420547 0.149959,-0.914047 0.244971,-1.096667 0.09501,-0.182621 0.301335,-0.448998 0.458494,-0.591951 0.15716,-0.142952 0.450245,-0.341149 0.6513,-0.440437 0.201056,-0.09929 0.66714,-0.277502 1.035742,-0.396033 0.368602,-0.118531 0.713974,-0.240508 0.767492,-0.271061 0.05352,-0.03055 0.03363,-0.132269 -0.04419,-0.226037 -0.111576,-0.134441 -0.0935,-0.185088 0.08547,-0.23954 0.124831,-0.03798 0.364048,-0.135697 0.531595,-0.217152 0.167546,-0.08146 0.400503,-0.338906 0.517681,-0.572113 0.13983,-0.278286 0.213117,-0.706692 0.213241,-1.246513 l 1.89e-4,-0.822501 h -0.782688 -0.782689 l -0.374905,0.315462 c -0.206198,0.173504 -0.374905,0.392837 -0.374905,0.487408 0,0.09457 -0.05619,0.171946 -0.124868,0.171946 -0.06868,0 -0.176987,-0.137084 -0.240688,-0.30463 -0.0721,-0.18963 -0.07293,-0.417427 -0.0022,-0.603424 0.06248,-0.164336 0.266749,-0.376559 0.453929,-0.471606 0.187181,-0.09505 0.693022,-0.233776 1.124093,-0.308286 0.431071,-0.07451 0.839579,-0.191287 0.907797,-0.259505 0.08414,-0.08414 0.08348,-0.164587 -0.0021,-0.250128 -0.06935,-0.06935 -0.534462,-0.128227 -1.033577,-0.130833 -0.499115,-0.0026 -1.070215,0.03457 -1.26911,0.0826 -0.198895,0.04804 -0.625943,0.219456 -0.948996,0.380933 -0.398572,0.199225 -0.638715,0.415713 -0.747114,0.673517 -0.107445,0.255537 -0.125538,0.502782 -0.05526,0.755179 0.05747,0.206391 0.284,0.527971 0.50341,0.714622 0.21941,0.186652 0.71422,0.454458 1.099576,0.595124 0.385357,0.140667 0.700649,0.304288 0.700649,0.363604 0,0.05932 -0.123375,0.083 -0.274167,0.05263 -0.150792,-0.03037 -0.462213,-0.08685 -0.692047,-0.1255 -0.229834,-0.03865 -0.680653,-0.238899 -1.001819,-0.444991 -0.321166,-0.206092 -0.701685,-0.56523 -0.845598,-0.798086 -0.143912,-0.232855 -0.304804,-0.614672 -0.357536,-0.848481 -0.05286,-0.234368 -0.04337,-0.615268 0.02114,-0.848921 0.06436,-0.233097 0.28228,-0.612032 0.484263,-0.842079 0.201984,-0.230046 0.651368,-0.555651 0.998632,-0.723564 0.347264,-0.167914 1.015222,-0.363785 1.484352,-0.435268 0.46913,-0.07148 1.11032,-0.213841 1.424866,-0.31635 0.314546,-0.102508 0.712089,-0.296649 0.883427,-0.431424 0.171338,-0.134775 0.311524,-0.348803 0.311524,-0.475618 0,-0.126815 -0.09596,-0.279779 -0.213241,-0.339921 -0.11726,-0.06015 -0.566599,-0.144599 -0.998509,-0.187679 -0.431909,-0.04308 -1.020986,-0.192425 -1.309058,-0.331879 -0.288072,-0.139453 -0.640612,-0.417644 -0.783421,-0.618201 -0.142809,-0.200557 -0.310866,-0.592582 -0.37346,-0.871168 -0.06259,-0.278585 -0.201382,-0.6032882 -0.308417,-0.7215602 -0.107035,-0.118273 -0.285519,-0.215041 -0.39663,-0.215041 -0.111112,0 -0.351422,0.15594 -0.534023,0.346535 -0.182601,0.1905942 -0.363157,0.5385232 -0.401236,0.7731762 -0.04569,0.281565 0.0017,0.563874 0.139461,0.830215 0.114783,0.221965 0.463289,0.680067 0.774458,1.018005 l 0.565762,0.614433 -0.548334,-0.314088 c -0.301584,-0.172748 -0.726543,-0.544376 -0.944353,-0.825839 -0.305207,-0.394401 -0.396019,-0.631186 -0.396019,-1.032593 0,-0.340079 0.0965,-0.664536 0.278042,-0.93488 0.152923,-0.2277212 0.550465,-0.5635492 0.883426,-0.7462852 0.4817,-0.264365 0.767206,-0.332735 1.397423,-0.334637 0.579699,-0.0018 0.898782,0.06269 1.190199,0.240369 0.218988,0.133518 0.646604,0.626813 0.950256,1.0962122 l 0.552096,0.853452 h 0.36587 c 0.302315,0 0.39654,-0.0734 0.54243,-0.422568 0.09711,-0.232412 0.17656,-0.616246 0.17656,-0.8529642 0,-0.301339 0.05481,-0.430395 0.182778,-0.430395 0.100528,0 0.182778,0.04223 0.182778,0.09384 0,0.05161 -0.111846,0.4974482 -0.248547,0.9907492 -0.136701,0.493302 -0.232659,0.940039 -0.213241,0.992751 0.01942,0.05271 0.802973,-0.394373 1.741233,-0.993522 0.93826,-0.5991482 1.928865,-1.1977802 2.201344,-1.3302922 0.272479,-0.132513 0.661912,-0.240932 0.865407,-0.240932 0.203495,0 0.556308,0.123375 0.784029,0.274167 0.251349,0.166437 0.552464,0.551088 0.766326,0.9789212 0.291801,0.58375 0.361206,0.897573 0.404229,1.827779 l 0.05194,1.123025 -0.251625,0.39849 c -0.138394,0.21917 -0.59106,0.617877 -1.005924,0.886017 -0.414864,0.268139 -0.774643,0.507871 -0.799509,0.532736 -0.02486,0.02487 0.428536,0.19606 1.007558,0.380432 0.717804,0.228563 1.185331,0.460246 1.469406,0.728163 l 0.416638,0.392941 V 18.679 20.809812 l -0.822652,0.06897 c -0.452458,0.03793 -1.139761,0.187614 -1.527339,0.332626 -0.387578,0.145011 -0.96326,0.460212 -1.279294,0.700446 -0.316034,0.240234 -0.779816,0.600848 -1.030626,0.801365 l -0.456019,0.364576 -0.945279,-0.441134 c -0.519903,-0.242624 -1.458597,-0.587397 -2.085987,-0.766163 -0.902529,-0.257163 -1.312126,-0.312764 -1.961679,-0.266289 -0.593387,0.04246 -1.002466,0.156508 -1.475679,0.41142 -0.360089,0.193974 -0.779626,0.538998 -0.932304,0.766719 -0.152679,0.227721 -0.277597,0.511902 -0.277597,0.631512 0,0.11961 0.09842,0.248708 0.2187,0.286885 0.120286,0.03818 0.81628,-0.04038 1.546654,-0.174566 0.796329,-0.146307 1.850846,-0.24398 2.634101,-0.24398 0.718382,0 1.721919,0.07955 2.230084,0.176778 0.508164,0.09723 1.184014,0.291823 1.501888,0.432434 0.317873,0.140611 0.70201,0.372202 0.853637,0.514648 0.151626,0.142446 0.275685,0.38901 0.275685,0.547921 0,0.15891 -0.130517,0.419445 -0.290037,0.578965 -0.159521,0.15952 -0.584479,0.383207 -0.944353,0.497083 -0.431645,0.136586 -1.17266,0.219261 -2.177465,0.242939 -0.837732,0.01974 -1.660233,0.0095 -1.82778,-0.0227 z m 4.060437,-0.867204 c 0.482637,-0.219462 0.580629,-0.316736 0.548334,-0.544316 -0.03032,-0.213678 -0.185427,-0.325574 -0.677681,-0.488896 -0.351098,-0.116488 -1.310682,-0.300716 -2.13241,-0.409395 -1.062328,-0.140501 -1.89897,-0.175035 -2.895347,-0.119512 -0.770714,0.04295 -1.611267,0.126423 -1.867896,0.1855 -0.256629,0.05908 -0.499377,0.14019 -0.539439,0.180252 -0.04006,0.04006 0.03282,0.151848 0.161969,0.248413 0.129145,0.09657 0.567526,0.345882 0.97418,0.554036 0.406655,0.208154 1.009822,0.455436 1.340372,0.549514 0.427266,0.121605 1.164587,0.162461 2.550631,0.141335 l 1.949631,-0.02972 z m 1.777782,-7.119322 c 0.0059,-0.850124 -0.04781,-1.700041 -0.119293,-1.888705 -0.07148,-0.188664 -0.245542,-0.466401 -0.386797,-0.617192 -0.141255,-0.150792 -0.373386,-0.274167 -0.515846,-0.274167 -0.142461,0 -0.324819,0.0658 -0.405242,0.146222 -0.103232,0.103232 -0.146222,0.81166 -0.146222,2.409579 v 2.263357 l 0.700649,0.307022 0.700648,0.307023 0.08071,-0.553729 c 0.04439,-0.304552 0.08552,-1.249286 0.09139,-2.09941 z m -2.207378,1.868166 c 0.11776,-0.0747 0.164361,-0.630779 0.182778,-2.181027 0.0136,-1.144418 -0.0147,-2.120305 -0.06287,-2.168636 -0.04817,-0.04833 -0.226381,0.0031 -0.396019,0.114218 l -0.308433,0.202093 v 0.781296 c 0,0.429713 -0.0582,0.935657 -0.129325,1.124321 -0.07113,0.188664 -0.298585,0.518516 -0.505458,0.733005 -0.206872,0.214489 -0.738135,0.539635 -1.180583,0.722546 -0.442448,0.182912 -0.842739,0.363838 -0.889537,0.402058 -0.0468,0.03822 0.337037,0.08348 0.852964,0.100574 0.515927,0.01709 1.212217,0.07919 1.547309,0.137983 0.335093,0.05879 0.636677,0.112511 0.670186,0.119367 0.03351,0.0069 0.132053,-0.03265 0.218986,-0.0878 z m 0.09226,-4.926149 c 0.03294,-0.08584 0.04493,-1.196213 0.02664,-2.467503 l -0.03325,-2.311435 -0.450808,0.459115 -0.450808,0.459114 0.07304,1.916999 c 0.04495,1.179709 0.1246,1.95143 0.207105,2.006522 0.07374,0.04924 0.231748,0.09036 0.351134,0.09139 0.119385,10e-4 0.244015,-0.06836 0.276953,-0.154201 z m 1.18944,-0.524883 c 0.200585,-0.200584 0.345298,-0.514802 0.397541,-0.863186 0.04518,-0.301285 0.0559,-0.956706 0.02383,-1.45649 l -0.05832,-0.908698 -0.345405,-0.360526 c -0.189973,-0.198288 -0.38998,-0.360525 -0.44446,-0.360525 -0.05448,0 -0.09905,0.959584 -0.09905,2.13241 0,1.172825 0.04736,2.132409 0.105236,2.132409 0.05788,0 0.247163,-0.141927 0.420628,-0.315394 z m -30.658327,8.647539 c -0.04776,-0.04776 -0.08631,-0.283316 -0.08569,-0.523465 6.91e-4,-0.263759 0.150827,-0.697671 0.379198,-1.09593 0.20793,-0.362611 0.873474,-1.171403 1.478988,-1.797316 0.605514,-0.625913 1.071987,-1.138023 1.036607,-1.138023 -0.03538,0 -0.428523,0.137083 -0.873653,0.304629 -0.44513,0.167547 -0.94688,0.30463 -1.115,0.30463 -0.16812,0 -0.338943,-0.0867 -0.379608,-0.192672 -0.04066,-0.10597 -0.02523,-0.997013 0.03429,-1.980095 l 0.108222,-1.787421 0.91389,-0.2884 c 0.502639,-0.158619 1.154325,-0.374517 1.44819,-0.479773 0.293865,-0.105256 0.863295,-0.404015 1.265399,-0.663907 0.445329,-0.28783 0.774944,-0.428688 0.843269,-0.360363 0.06169,0.06169 0.205098,0.294417 0.318676,0.517163 0.113579,0.222746 0.356401,0.514885 0.539605,0.649198 0.183205,0.134313 0.368662,0.208643 0.412127,0.165177 0.04347,-0.04347 0.142567,-0.396211 0.220225,-0.783878 0.110917,-0.553693 0.189541,-0.704849 0.36663,-0.704849 0.123989,0 0.28311,0.09144 0.353603,0.203189 0.09909,0.157089 0.0258,0.410308 -0.323014,1.116092 -0.24815,0.502097 -0.756616,1.308216 -1.129925,1.791376 l -0.678744,0.878473 0.466704,-0.07539 c 0.256687,-0.04147 0.727162,-0.109788 1.0455,-0.151825 l 0.578797,-0.07643 v 2.069477 2.069477 l -0.786459,0.194078 c -0.432552,0.106743 -1.093226,0.339203 -1.468165,0.516578 -0.374939,0.177374 -0.926258,0.509168 -1.225153,0.73732 -0.298896,0.228152 -0.642086,0.414822 -0.762646,0.414822 -0.139375,0 -0.29908,-0.181054 -0.438556,-0.497183 -0.121788,-0.27604 -0.389662,-0.601029 -0.602247,-0.730656 -0.210589,-0.12841 -0.492557,-0.232839 -0.626594,-0.232063 -0.134037,7.76e-4 -0.325954,0.05342 -0.426482,0.116995 -0.128092,0.081 -0.182778,0.326528 -0.182778,0.820635 v 0.70505 l -0.30919,0.03606 c -0.170054,0.01983 -0.348263,-0.003 -0.396019,-0.05077 z m 4.483259,-4.649975 -0.07405,-0.39987 -0.328849,0.237868 c -0.180867,0.130828 -0.712682,0.596037 -1.181812,1.033799 l -0.852964,0.79593 0.731112,0.009 c 0.423863,0.0052 0.935944,0.101159 1.218519,0.228309 l 0.487408,0.21932 0.03735,-0.862238 c 0.02054,-0.474231 0.004,-1.042179 -0.03671,-1.262108 z m -0.680619,-0.813584 c 0.189012,-0.09774 0.597539,-0.46009 0.907838,-0.805217 0.310299,-0.345126 0.56418,-0.671903 0.56418,-0.72617 0,-0.05427 -0.425146,-0.240253 -0.944768,-0.413303 -0.519623,-0.17305 -0.985707,-0.314636 -1.035742,-0.314636 -0.05004,0 -0.09097,0.548333 -0.09097,1.218519 0,0.769545 0.04713,1.21852 0.127904,1.21852 0.07035,0 0.282549,-0.07997 0.471562,-0.177713 z m 74.913721,5.463559 c -0.0478,-0.04776 -0.0863,-0.283316 -0.0857,-0.523465 7e-4,-0.263759 0.15083,-0.697671 0.3792,-1.09593 0.20793,-0.362611 0.87348,-1.171403 1.47899,-1.797316 0.60552,-0.625913 1.07199,-1.138023 1.03661,-1.138023 -0.0354,0 -0.42852,0.137083 -0.87365,0.304629 -0.44513,0.167547 -0.94688,0.30463 -1.115,0.30463 -0.16812,0 -0.33895,-0.0867 -0.37961,-0.192672 -0.0407,-0.10597 -0.0252,-0.997013 0.0343,-1.980095 l 0.10822,-1.787421 0.91389,-0.2884 c 0.50264,-0.158619 1.15432,-0.374517 1.44819,-0.479773 0.29386,-0.105256 0.86329,-0.404015 1.2654,-0.663907 0.44533,-0.28783 0.77494,-0.428688 0.84327,-0.360363 0.0617,0.06169 0.20509,0.294417 0.31867,0.517163 0.11358,0.222746 0.3564,0.514885 0.53961,0.649198 0.1832,0.134313 0.36866,0.208643 0.41212,0.165177 0.0435,-0.04347 0.14257,-0.396211 0.22023,-0.783878 0.11092,-0.553693 0.18954,-0.704849 0.36663,-0.704849 0.12399,0 0.28311,0.09144 0.3536,0.203189 0.0991,0.157089 0.0258,0.410308 -0.32301,1.116092 -0.24815,0.502097 -0.75662,1.308216 -1.12993,1.791376 l -0.67874,0.878473 0.4667,-0.07539 c 0.25669,-0.04147 0.72717,-0.109788 1.0455,-0.151825 l 0.5788,-0.07643 v 2.069477 2.069477 l -0.78646,0.194078 c -0.43255,0.106743 -1.09323,0.339203 -1.46816,0.516578 -0.37494,0.177374 -0.92626,0.509168 -1.22516,0.73732 -0.29889,0.228152 -0.64208,0.414822 -0.76264,0.414822 -0.13938,0 -0.29908,-0.181054 -0.43856,-0.497183 -0.12179,-0.27604 -0.38966,-0.601029 -0.60225,-0.730656 -0.21059,-0.12841 -0.49255,-0.232839 -0.62659,-0.232063 -0.13404,7.76e-4 -0.32595,0.05342 -0.42648,0.116995 -0.12809,0.081 -0.18278,0.326528 -0.18278,0.820635 v 0.70505 l -0.30919,0.03606 c -0.17005,0.01983 -0.34826,-0.003 -0.39602,-0.05077 z m 4.48326,-4.649975 -0.074,-0.39987 -0.32885,0.237868 c -0.18087,0.130828 -0.71268,0.596037 -1.18181,1.033799 l -0.85297,0.79593 0.73111,0.009 c 0.42387,0.0052 0.93595,0.101159 1.21852,0.228309 l 0.48741,0.21932 0.0373,-0.862238 c 0.0205,-0.474231 0.004,-1.042179 -0.0367,-1.262108 z m -0.68062,-0.813584 c 0.18901,-0.09774 0.59754,-0.46009 0.90784,-0.805217 0.3103,-0.345126 0.56418,-0.671903 0.56418,-0.72617 0,-0.05427 -0.42515,-0.240253 -0.94477,-0.413303 -0.51962,-0.17305 -0.98571,-0.314636 -1.03574,-0.314636 -0.05,0 -0.091,0.548333 -0.091,1.218519 0,0.769545 0.0471,1.21852 0.1279,1.21852 0.0704,0 0.28255,-0.07997 0.47156,-0.177713 z m -14.917067,5.104726 c -0.201056,-0.167121 -0.655507,-0.529836 -1.009892,-0.806033 l -0.644336,-0.502176 -0.33048,0.308118 c -0.181764,0.169466 -0.45025,0.369652 -0.596636,0.44486 -0.146386,0.07521 -0.297177,0.13674 -0.335093,0.13674 -0.03792,0 -0.06894,-0.0587 -0.06894,-0.130454 0,-0.07175 0.219333,-0.39057 0.487408,-0.70849 l 0.487407,-0.578037 v -2.947068 -2.947068 h 0.197905 c 0.108847,0 0.626943,-0.193717 1.151325,-0.430481 0.629112,-0.284052 1.214604,-0.452968 1.721263,-0.49659 l 0.767844,-0.06611 0.54735,0.283349 c 0.301042,0.155841 0.671172,0.469665 0.822502,0.697387 0.18669,0.280932 0.27515,0.595955 0.27515,0.979908 v 0.565869 l -0.51787,0.496491 c -0.28483,0.273071 -1.025081,0.864625 -1.645003,1.314565 -0.619922,0.44994 -1.126825,0.854811 -1.126451,0.899714 3.74e-4,0.0449 0.05886,0.291147 0.129961,0.54721 0.0711,0.256063 0.32393,0.681022 0.561833,0.944352 0.237904,0.263331 0.496586,0.478784 0.574851,0.478784 0.07826,0 0.442009,-0.305627 0.808321,-0.679172 0.366318,-0.373544 0.751228,-0.726135 0.855368,-0.783535 0.10414,-0.0574 0.26157,-0.05973 0.34984,-0.0052 0.11636,0.07192 -0.24987,0.538666 -1.331862,1.697425 -0.820795,0.879029 -1.553973,1.596262 -1.629284,1.593852 -0.07531,-0.0024 -0.30143,-0.141118 -0.502485,-0.308239 z m 1.660357,-5.371998 c 0.09169,-0.110478 -0.02321,-0.38303 -0.420138,-0.996621 -0.300488,-0.464506 -0.60123,-0.878479 -0.668317,-0.919941 -0.07652,-0.04729 -0.154385,0.400099 -0.208951,1.200646 -0.04784,0.701818 -0.05344,1.363434 -0.01244,1.470259 0.06266,0.163296 0.162847,0.130804 0.629089,-0.204026 0.305006,-0.219039 0.611348,-0.466681 0.680759,-0.550317 z m 54.18543,4.779434 -1.03587,-0.908075 -0.59295,0.602 c -0.32612,0.3311 -0.63613,0.602 -0.68892,0.602 -0.0528,0 -0.096,-0.07238 -0.096,-0.160844 0,-0.08846 0.18164,-0.37634 0.40363,-0.639723 0.222,-0.263383 0.49617,-0.614454 0.60926,-0.780158 l 0.20563,-0.30128 v -2.349 -2.349 h -0.85296 -0.85296 l 0.004,-0.396019 c 0.002,-0.217811 0.0707,-0.483551 0.15232,-0.590535 0.0816,-0.106983 0.32392,-0.285191 0.5384,-0.396018 0.21449,-0.110827 0.52978,-0.201504 0.70065,-0.201504 h 0.31068 l 0.002,-0.883427 c 9.9e-4,-0.485884 0.0695,-1.009139 0.15231,-1.162787 0.0828,-0.153648 0.58919,-0.604823 1.12534,-1.002611 0.53615,-0.397789 1.19415,-0.826102 1.46222,-0.951808 0.26808,-0.125706 0.67304,-0.264103 0.89993,-0.30755 0.22688,-0.04345 0.62149,-0.02272 0.87689,0.04605 0.25541,0.06877 0.57698,0.268199 0.71461,0.443168 0.13763,0.174969 0.25024,0.452032 0.25024,0.615696 0,0.166424 -0.15698,0.454548 -0.35618,0.653753 l -0.35618,0.356182 h -0.74049 c -0.41242,0 -0.74048,-0.05399 -0.74048,-0.121852 0,-0.06702 0.0529,-0.121852 0.11756,-0.121852 0.0647,0 0.17559,-0.10841 0.2465,-0.240911 0.1024,-0.191346 0.0782,-0.291626 -0.11757,-0.487408 -0.13557,-0.135573 -0.38047,-0.246496 -0.54421,-0.246496 -0.16953,0 -0.3794,0.116613 -0.48741,0.270816 -0.14397,0.205543 -0.18969,0.596157 -0.18969,1.620631 0,0.887387 0.0501,1.399909 0.14622,1.496037 0.089,0.089 0.52216,0.146222 1.10682,0.146222 0.52833,0 0.94233,0.0451 0.91999,0.100216 -0.0223,0.05512 -0.1777,0.4106 -0.34525,0.789959 l -0.30463,0.689742 -0.7548,0.0021 -0.7548,0.0021 -0.0372,1.614538 c -0.0205,0.887996 -0.006,1.874661 0.0322,2.192589 0.0442,0.368207 0.1736,0.688909 0.35634,0.883427 0.15778,0.167957 0.33615,0.305376 0.39637,0.305376 0.0602,0 0.43116,-0.342709 0.82431,-0.761575 0.47991,-0.511306 0.75539,-0.721435 0.83829,-0.639427 0.083,0.08216 -0.29363,0.657399 -1.1505,1.757017 -0.70068,0.899179 -1.29275,1.653655 -1.31571,1.676614 -0.023,0.02296 -0.50789,-0.36689 -1.07762,-0.866331 z M 13.692009,22.971857 C 13.310569,22.879355 12.63954,22.640921 12.200833,22.442001 11.738245,22.232254 11.116109,21.808826 10.719772,21.433988 10.343896,21.0785 9.898189,20.551873 9.7293114,20.263705 9.5604339,19.975537 9.3189555,19.407841 9.1926928,19.002158 9.0457106,18.529904 8.9638089,17.906813 8.9650276,17.270131 c 0.00105,-0.546932 0.07567,-1.296006 0.1658295,-1.664608 0.090159,-0.368603 0.2857456,-0.97177 0.4346363,-1.340372 0.1488907,-0.368602 0.5814766,-1.102075 0.9613006,-1.62994 0.379825,-0.527865 1.004961,-1.302932 1.38919,-1.722373 0.38423,-0.41944 0.964781,-0.9334262 1.290114,-1.1421922 0.325333,-0.208765 0.666902,-0.379573 0.759044,-0.379573 0.09214,0 -0.08283,0.260458 -0.388831,0.578797 -0.305998,0.3183382 -0.646646,0.7143722 -0.756994,0.8800762 -0.110349,0.165704 -0.200634,0.371329 -0.200634,0.456945 0,0.09205 0.150805,0.155665 0.369031,0.155665 0.202966,0 0.710175,-0.172144 1.12713,-0.382542 0.416955,-0.210398 1.36957,-0.729616 2.116922,-1.1538182 0.747353,-0.424201 1.672635,-0.910058 2.056183,-1.079681 0.383548,-0.169623 0.767641,-0.308406 0.853541,-0.308406 0.09489,0 0.188872,0.237688 0.239477,0.60563 0.04581,0.333096 0.20175,0.840304 0.346527,1.1271302 0.218328,0.43254 0.330801,0.528016 0.659329,0.55969 l 0.396098,0.03819 0.132795,-0.342819 c 0.07404,-0.191139 0.10103,-0.6212752 0.061,-0.9721742 -0.03949,-0.346146 -0.108017,-0.723753 -0.15229,-0.839128 -0.05637,-0.14689 -0.02902,-0.193481 0.09123,-0.155425 0.09445,0.02989 0.267605,0.242997 0.384783,0.473571 0.117179,0.230574 0.211933,0.665976 0.210565,0.9675592 -0.0014,0.301584 -0.106828,0.778159 -0.234356,1.059056 -0.168616,0.371398 -0.374736,0.583607 -0.755574,0.777896 -0.335184,0.170998 -0.810014,0.282138 -1.319067,0.308743 -0.437449,0.02286 -0.836487,0.04293 -0.886751,0.0446 -0.05026,0.0017 -0.09139,2.059288 -0.09139,4.572484 v 4.569449 h 0.219847 c 0.120917,0 0.465727,-0.155932 0.766244,-0.346514 0.300517,-0.190583 0.751778,-0.586457 1.0028,-0.879721 0.251023,-0.293263 0.598574,-0.823789 0.772337,-1.178946 0.241454,-0.493516 0.330321,-0.898124 0.376975,-1.716357 0.04449,-0.78024 0.0073,-1.255649 -0.137282,-1.752833 -0.10908,-0.375219 -0.198326,-0.714903 -0.198326,-0.754852 0,-0.03995 0.112464,-0.07264 0.249921,-0.07264 0.173411,0 0.308095,0.139228 0.439945,0.454789 0.104512,0.250134 0.218378,0.868483 0.253034,1.374109 0.04788,0.698486 5.96e-4,1.166144 -0.196822,1.946826 -0.142909,0.565128 -0.437781,1.32698 -0.655272,1.693003 -0.21749,0.366024 -0.671142,0.944007 -1.008115,1.284407 -0.336974,0.3404 -0.945244,0.795747 -1.351712,1.011882 -0.406468,0.216135 -1.090347,0.475783 -1.51973,0.576996 -0.429378,0.101212 -1.246775,0.180265 -1.816433,0.175672 -0.569658,-0.0046 -1.347829,-0.08403 -1.729269,-0.176534 z m 4.015376,-6.239484 0.03185,-4.904823 -0.437141,-0.456664 -0.437141,-0.456664 0.06011,3.32146 c 0.03475,1.920188 0.01145,3.497662 -0.05522,3.739116 -0.06343,0.22971 -0.277579,0.554187 -0.475896,0.721059 -0.198316,0.166873 -0.676504,0.391261 -1.062639,0.498641 -0.386136,0.10738 -0.962523,0.312746 -1.280861,0.456369 -0.318339,0.143623 -0.578797,0.300912 -0.578797,0.349532 0,0.04862 0.203123,0.266745 0.451384,0.484721 0.248262,0.217977 0.737721,0.52741 1.087687,0.68763 0.349966,0.16022 0.873385,0.339215 1.163154,0.397768 0.289768,0.05855 0.746185,0.09751 1.01426,0.08657 l 0.487407,-0.01989 z m -4.368688,2.13269 c 0.07131,-0.217811 0.188686,-0.697603 0.260836,-1.066205 0.086,-0.439353 0.10261,-1.598123 0.04823,-3.364301 l -0.08295,-2.694114 -0.503525,0.147545 c -0.409881,0.120106 -0.529165,0.22457 -0.641393,0.561706 -0.07583,0.227788 -0.231305,1.063861 -0.345508,1.857941 -0.166918,1.160626 -0.181603,1.5933 -0.07488,2.206163 0.07302,0.41931 0.242961,1.082676 0.377647,1.474148 0.134685,0.391471 0.327643,0.838074 0.428795,0.992451 0.101151,0.154376 0.233228,0.280684 0.293505,0.280684 0.06028,0 0.167937,-0.178208 0.239247,-0.396018 z m 54.045473,3.313793 -1.06065,-1.015767 -0.357013,0.399567 c -0.225861,0.252782 -0.426291,0.372982 -0.545597,0.3272 l -0.188584,-0.07237 0.211855,-0.323331 c 0.11652,-0.177832 0.328085,-0.519982 0.470146,-0.760333 l 0.258291,-0.437003 0.04327,-1.92101 c 0.03625,-1.60929 0.01152,-1.969463 -0.152399,-2.219635 l -0.195669,-0.298629 -0.426398,0.251581 c -0.356163,0.210141 -0.426398,0.220682 -0.426398,0.064 0,-0.103172 0.323364,-0.588381 0.718587,-1.078241 0.395223,-0.489861 0.852782,-1.015581 1.016799,-1.168267 0.164017,-0.152687 0.375278,-0.247787 0.46947,-0.211333 0.09419,0.03645 0.300097,0.254997 0.457568,0.485653 0.157471,0.230655 0.475227,0.563466 0.706123,0.73958 0.337259,0.257239 0.454526,0.291397 0.596342,0.1737 0.09709,-0.08058 0.350335,-0.455374 0.562762,-0.832878 0.212428,-0.377504 0.4033,-0.707825 0.424161,-0.734048 0.02086,-0.02622 0.28968,0.158614 0.597375,0.410747 0.307695,0.252133 0.698479,0.668516 0.868408,0.925297 l 0.308962,0.466874 -0.438345,0.721595 c -0.24109,0.396877 -0.527714,0.795763 -0.636942,0.886414 l -0.198596,0.16482 -0.502539,-0.576969 c -0.276396,-0.317334 -0.59219,-0.576524 -0.701765,-0.575979 -0.109575,5.45e-4 -0.287783,0.136146 -0.396019,0.301334 -0.158017,0.241165 -0.196702,0.643316 -0.196337,2.041021 l 4.56e-4,1.740677 0.243946,0.400111 c 0.13417,0.220061 0.335776,0.435349 0.448013,0.478419 0.144138,0.05531 0.339778,-0.07926 0.666183,-0.458249 0.354135,-0.411181 0.495595,-0.503079 0.605387,-0.393287 0.109793,0.109793 0.09185,0.223033 -0.07679,0.48462 -0.121033,0.187743 -0.577498,0.780017 -1.014367,1.316166 -0.436869,0.536148 -0.862874,1.05107 -0.946677,1.14427 -0.126958,0.141194 -0.329262,4.8e-5 -1.213021,-0.846313 z m 20.295318,0.480082 C 87.377905,22.38888 86.833522,21.996643 86.469749,21.787301 l -0.661405,-0.380621 0.351022,-0.250299 c 0.193063,-0.137664 0.467919,-0.362114 0.610793,-0.498777 l 0.259771,-0.248479 0.0807,-2.127634 c 0.04439,-1.170199 0.08087,-3.20388 0.08108,-4.519291 2.96e-4,-1.8999 -0.03465,-2.420721 -0.169954,-2.533014 -0.134885,-0.111944 -0.223201,-0.07414 -0.42443,0.181682 -0.15529,0.197419 -0.325979,0.295459 -0.438933,0.252114 -0.101657,-0.03901 -0.18483,-0.127964 -0.18483,-0.197678 0,-0.06971 0.452375,-0.613197 1.005278,-1.20774 l 1.005279,-1.0809892 0.230823,0.120946 c 0.126952,0.06652 0.462084,0.334115 0.744738,0.594656 0.282654,0.2605412 0.593484,0.4737112 0.690733,0.4737112 0.09725,0 0.334418,-0.1645 0.527041,-0.365555 0.192624,-0.2010562 0.3948,-0.3655562 0.44928,-0.3655562 0.05448,0 0.09905,0.05561 0.09905,0.123573 0,0.06796 -0.24675,0.4265162 -0.548334,0.7967802 l -0.548334,0.673205 0.0086,1.853501 c 0.0047,1.019426 0.05133,1.963087 0.103607,2.097026 l 0.09504,0.243525 0.910897,-0.883248 c 0.500994,-0.485786 0.946186,-0.883248 0.989317,-0.883248 0.04313,0 0.265526,0.292495 0.494211,0.649988 0.228686,0.357494 0.562123,0.765092 0.740971,0.905774 0.178849,0.140682 0.390605,0.277594 0.470569,0.304249 0.106467,0.03549 0.145607,0.737692 0.1462,2.622972 l 8.1e-4,2.574508 0.215211,0.21582 c 0.171359,0.171844 0.260481,0.187549 0.437385,0.07707 0.122195,-0.07631 0.291998,-0.0956 0.377338,-0.04285 0.111549,0.06894 -0.06504,0.348371 -0.628243,0.994096 -0.451497,0.517653 -0.89909,0.915083 -1.056452,0.938049 -0.173786,0.02536 -0.511662,-0.140309 -0.929447,-0.45574 -0.397811,-0.300349 -0.731098,-0.466926 -0.846006,-0.422831 -0.104282,0.04002 -0.189603,0.115418 -0.189603,0.167558 0,0.05214 -0.138632,0.185636 -0.308072,0.296657 -0.169439,0.111021 -0.363905,0.16735 -0.432145,0.125175 -0.07056,-0.04361 0.08859,-0.307391 0.368997,-0.611602 l 0.493072,-0.534919 v -2.615748 -2.615745 l -0.281338,-0.327038 c -0.217557,-0.252926 -0.344341,-0.307033 -0.559457,-0.238757 -0.159605,0.05066 -0.356023,0.274655 -0.460865,0.525577 -0.131395,0.314473 -0.188164,0.955316 -0.202117,2.281637 l -0.0194,1.844341 0.335093,0.506604 c 0.184301,0.278632 0.335093,0.530383 0.335093,0.559446 0,0.02906 -0.355991,0.306873 -0.791092,0.617354 -0.482562,0.34435 -0.820374,0.681181 -0.866173,0.86366 -0.04129,0.164532 -0.137679,0.29681 -0.214187,0.293953 -0.07651,-0.0029 -0.385855,-0.226153 -0.687439,-0.496211 z m 16.503972,-0.480082 -1.06065,-1.015767 -0.35701,0.399567 c -0.22586,0.252782 -0.42629,0.372982 -0.5456,0.3272 l -0.18858,-0.07237 0.21185,-0.323331 c 0.11652,-0.177832 0.32809,-0.519982 0.47015,-0.760333 l 0.25829,-0.437003 0.0433,-1.92101 c 0.0362,-1.60929 0.0115,-1.969463 -0.1524,-2.219635 l -0.19567,-0.298629 -0.4264,0.251581 c -0.35616,0.210141 -0.42639,0.220682 -0.42639,0.064 0,-0.103172 0.32336,-0.588381 0.71858,-1.078241 0.39523,-0.489861 0.85278,-1.015581 1.0168,-1.168267 0.16402,-0.152687 0.37528,-0.247787 0.46947,-0.211333 0.0942,0.03645 0.3001,0.254997 0.45757,0.485653 0.15747,0.230655 0.47523,0.563466 0.70612,0.73958 0.33726,0.257239 0.45453,0.291397 0.59634,0.1737 0.0971,-0.08058 0.35034,-0.455374 0.56277,-0.832878 0.21242,-0.377504 0.4033,-0.707825 0.42416,-0.734048 0.0209,-0.02622 0.28968,0.158614 0.59737,0.410747 0.3077,0.252133 0.69848,0.668516 0.86841,0.925297 l 0.30896,0.466874 -0.43834,0.721594 c -0.24109,0.396878 -0.52772,0.795764 -0.63694,0.886415 l -0.1986,0.16482 -0.50254,-0.576969 c -0.2764,-0.317334 -0.59219,-0.576524 -0.70176,-0.575979 -0.10958,5.45e-4 -0.28779,0.136146 -0.39602,0.301334 -0.15802,0.241165 -0.19671,0.643316 -0.19634,2.041021 l 4.6e-4,1.740677 0.24394,0.400111 c 0.13417,0.220061 0.33578,0.435349 0.44801,0.478419 0.14414,0.05531 0.33978,-0.07926 0.66619,-0.458249 0.35413,-0.411181 0.49559,-0.503079 0.60538,-0.393287 0.1098,0.109793 0.0919,0.223033 -0.0768,0.48462 -0.12103,0.187743 -0.57749,0.780017 -1.01436,1.316166 -0.43687,0.536148 -0.86288,1.05107 -0.94668,1.14427 -0.12696,0.141194 -0.32926,4.8e-5 -1.21302,-0.846313 z m -63.352284,0.620093 c -0.122554,-0.135421 -0.518322,-0.474193 -0.879483,-0.752827 l -0.656658,-0.506608 -0.337148,0.323007 c -0.185431,0.177654 -0.402688,0.323007 -0.482794,0.323007 -0.08011,0 -0.145647,-0.05958 -0.145647,-0.132394 0,-0.07282 0.174166,-0.374917 0.387035,-0.671333 l 0.387036,-0.538938 0.05505,-2.298435 0.05505,-2.298436 -0.249085,-0.249085 c -0.196035,-0.196037 -0.351699,-0.235321 -0.730917,-0.184457 -0.265009,0.03554 -0.513202,0.01387 -0.551541,-0.04816 -0.03834,-0.06203 0.05779,-0.465843 0.213612,-0.897352 l 0.283321,-0.784563 0.532164,-0.06093 0.532164,-0.06093 -0.03574,-0.456945 c -0.01966,-0.25132 0.01375,-0.456945 0.07423,-0.456945 0.06048,0 0.37368,-0.232127 0.695992,-0.515837 0.389793,-0.34311 0.701958,-0.77153 0.932258,-1.279446 0.19043,-0.419984 0.394658,-0.763608 0.453839,-0.763608 0.05918,0 0.140885,0.08673 0.181565,0.192744 0.04068,0.106009 0.07396,0.901093 0.07396,1.766853 v 1.57411 h 0.91389 0.91389 v 0.201483 c 0,0.110816 -0.140068,0.497562 -0.311261,0.859435 l -0.311262,0.657953 -0.530879,-0.07961 -0.530879,-0.07961 -0.145518,0.271903 c -0.09111,0.170231 -0.152107,0.939752 -0.163138,2.057963 l -0.01762,1.78606 0.213241,0.326075 c 0.117283,0.179342 0.326585,0.386735 0.465116,0.460875 0.195063,0.104395 0.316659,0.09235 0.539093,-0.05339 0.157969,-0.103506 0.322487,-0.29932 0.365596,-0.435143 0.04311,-0.135822 0.156934,-0.24695 0.252945,-0.24695 0.09601,0 0.174567,0.07524 0.174567,0.16719 0,0.09196 -0.327711,0.627901 -0.728247,1.190993 -0.400536,0.563091 -0.939012,1.229609 -1.196613,1.48115 l -0.468366,0.457347 z m 42.404481,0 c -0.122554,-0.135421 -0.518321,-0.474193 -0.879483,-0.752827 l -0.656658,-0.506608 -0.337148,0.323007 c -0.18543,0.177654 -0.402688,0.323007 -0.482794,0.323007 -0.08011,0 -0.145647,-0.05958 -0.145647,-0.132394 0,-0.07282 0.174166,-0.374917 0.387035,-0.671333 l 0.387036,-0.538938 0.05505,-2.298435 0.05505,-2.298436 -0.249085,-0.249085 c -0.196035,-0.196037 -0.351699,-0.235321 -0.730917,-0.184457 -0.265009,0.03554 -0.513202,0.01387 -0.551541,-0.04816 -0.03834,-0.06203 0.05779,-0.465843 0.213613,-0.897352 l 0.28332,-0.784563 0.532164,-0.06093 0.532164,-0.06093 -0.03574,-0.456945 c -0.01966,-0.25132 0.01375,-0.456945 0.07423,-0.456945 0.06048,0 0.37368,-0.232127 0.695992,-0.515837 0.389793,-0.34311 0.701958,-0.77153 0.932258,-1.279446 0.19043,-0.419984 0.394658,-0.763608 0.453839,-0.763608 0.05918,0 0.140885,0.08673 0.181565,0.192744 0.04068,0.106009 0.07396,0.901093 0.07396,1.766853 v 1.57411 h 0.91389 0.91389 v 0.201483 c 0,0.110816 -0.140068,0.497562 -0.311261,0.859435 l -0.311262,0.657953 -0.530879,-0.07961 -0.530879,-0.07961 -0.145518,0.271903 c -0.0911,0.17023 -0.152098,0.939751 -0.163129,2.057962 l -0.01762,1.78606 0.21324,0.326075 c 0.117283,0.179342 0.326585,0.386735 0.465116,0.460875 0.195063,0.104395 0.316659,0.09235 0.539093,-0.05339 0.157969,-0.103506 0.322487,-0.29932 0.365596,-0.435143 0.04311,-0.135822 0.156934,-0.24695 0.252945,-0.24695 0.09601,0 0.174567,0.07524 0.174567,0.16719 0,0.09196 -0.327711,0.627901 -0.728247,1.190993 -0.400536,0.563091 -0.939012,1.229609 -1.196613,1.48115 l -0.468366,0.457347 z m 45.690713,0.11264 c -0.40211,-0.06252 -1.08753,-0.221751 -1.52315,-0.353836 -0.43562,-0.132084 -1.12103,-0.437715 -1.52315,-0.67918 -0.40211,-0.241465 -0.96738,-0.668723 -1.25616,-0.949462 -0.28878,-0.28074 -0.72043,-0.904651 -0.95923,-1.38647 l -0.43418,-0.876033 -0.0628,-1.10156 c -0.0475,-0.833071 -0.0106,-1.287554 0.1513,-1.864665 0.11777,-0.419709 0.34668,-1.062835 0.50869,-1.429169 0.16201,-0.366334 0.51911,-0.963479 0.79357,-1.32699 0.27445,-0.363511 0.91866,-1.080584 1.43157,-1.593496 0.51291,-0.512912 1.13774,-1.089058 1.3885,-1.280325 0.25076,-0.1912672 0.48738,-0.3163122 0.52582,-0.2778782 0.0384,0.03843 -0.20981,0.4959182 -0.55165,1.0166302 -0.34185,0.520711 -0.62154,1.017829 -0.62154,1.104705 0,0.09234 0.14394,0.157956 0.34648,0.157956 0.19057,0 0.66592,-0.109901 1.05633,-0.244224 0.39042,-0.134323 1.12555,-0.468102 1.63362,-0.741731 0.50807,-0.273629 1.54248,-0.903979 2.29868,-1.4007772 0.75621,-0.496799 1.42069,-0.903271 1.47664,-0.903271 0.056,0 0.13223,0.22738 0.1695,0.505289 0.0373,0.27791 0.16806,0.605577 0.29064,0.7281502 0.12257,0.122574 0.38803,0.255896 0.58991,0.296272 0.26821,0.05364 0.45493,0.0043 0.69339,-0.183282 0.24508,-0.1927762 0.33562,-0.3847822 0.36363,-0.7710982 0.0261,-0.359437 0.0924,-0.514405 0.22008,-0.514405 0.12383,0 0.19513,0.149892 0.22106,0.464773 0.0266,0.322478 -0.0737,0.7041032 -0.32752,1.2464912 -0.2012,0.429946 -0.54497,1.042116 -0.76394,1.360378 -0.21897,0.318262 -0.69341,0.926737 -1.05431,1.352166 -0.36091,0.425429 -0.63753,0.790943 -0.61472,0.812253 0.0228,0.02131 0.55215,0.209159 1.17632,0.417442 0.62416,0.208283 1.40538,0.555806 1.73604,0.772274 0.33066,0.216468 0.76523,0.621985 0.96571,0.901148 0.20048,0.279163 0.4265,0.796646 0.50228,1.149962 0.0758,0.353316 0.10483,0.920489 0.0646,1.260384 -0.0403,0.339896 -0.2387,0.954198 -0.441,1.365117 -0.20229,0.410918 -0.60996,0.970333 -0.90592,1.243143 -0.29597,0.272811 -0.87756,0.667368 -1.29243,0.876794 -0.41487,0.209426 -1.17343,0.490608 -1.68569,0.624848 -0.59606,0.1562 -1.45782,0.260506 -2.3936,0.289716 -0.80422,0.0251 -1.79122,-0.0055 -2.19334,-0.06804 z m 2.86352,-3.956258 v -3.595753 l -0.42497,0.275287 -0.42497,0.275288 -0.002,1.096667 c -0.002,0.849896 -0.0527,1.17981 -0.22728,1.466155 -0.12754,0.209137 -0.53717,0.535195 -0.9439,0.751316 -0.39522,0.210005 -1.06735,0.471768 -1.49363,0.581694 -0.42628,0.109926 -0.80492,0.169997 -0.84143,0.13349 -0.0365,-0.03651 0.11538,-0.424474 0.33754,-0.862147 l 0.40391,-0.79577 -0.0804,-2.942418 c -0.0442,-1.61833 -0.10849,-2.970541 -0.14286,-3.004913 -0.0344,-0.03437 -0.31961,0.04406 -0.63385,0.174294 -0.38708,0.160421 -0.65183,0.373803 -0.82091,0.661617 l -0.24957,0.424827 0.002,2.071484 c 0.002,1.652225 0.047,2.218403 0.22399,2.79739 0.12204,0.399249 0.35221,0.983067 0.51148,1.297372 0.15927,0.314305 0.55688,0.845886 0.88357,1.181292 0.3267,0.335405 0.88874,0.759186 1.24899,0.941737 0.36024,0.182551 0.87626,0.401849 1.1467,0.48733 0.27043,0.08548 0.72474,0.160841 1.00957,0.167467 l 0.51787,0.01205 z m 1.44041,3.11422 c 0.26446,-0.07121 0.54919,-0.211837 0.63273,-0.3125 0.0836,-0.100664 0.18764,-0.528306 0.23132,-0.950317 0.0437,-0.422011 0.0486,-0.897793 0.011,-1.057294 -0.0433,-0.183363 -0.19082,-0.322726 -0.40122,-0.378994 -0.18301,-0.04895 -0.51914,-0.03753 -0.74694,0.02537 -0.30634,0.08458 -0.44877,0.213574 -0.54702,0.495405 -0.073,0.209574 -0.13222,0.63332 -0.13149,0.941657 7.4e-4,0.308338 0.0358,0.76917 0.0779,1.024072 0.0512,0.310022 0.12895,0.443365 0.23474,0.402767 0.087,-0.03338 0.37453,-0.118954 0.63899,-0.190165 z m 1.96286,-1.42393 c 0.13904,-0.176764 0.33494,-0.597967 0.43533,-0.936006 0.1062,-0.35763 0.18252,-1.098781 0.18252,-1.77255 0,-0.918309 -0.0517,-1.264717 -0.2498,-1.673951 -0.13739,-0.28381 -0.33063,-0.583103 -0.42943,-0.665095 -0.0988,-0.08199 -0.2138,-0.114897 -0.25558,-0.07312 -0.0418,0.04178 -0.10899,1.283409 -0.14937,2.759188 -0.0552,2.018747 -0.0379,2.683195 0.0701,2.683078 0.0789,-8.5e-5 0.25723,-0.144779 0.39627,-0.321542 z m -0.99112,-2.450744 -0.036,-0.822501 -0.86791,-0.03549 -0.8679,-0.03549 -0.0176,0.857989 -0.0176,0.857988 h 0.92157 0.92157 z m -0.15767,-1.371072 c 0.10867,-0.120076 0.22878,-0.520685 0.26693,-0.890244 0.0381,-0.369558 0.0352,-0.807819 -0.006,-0.973913 -0.047,-0.187422 -0.19216,-0.331196 -0.38254,-0.378976 -0.18049,-0.0453 -0.45371,-9.84e-4 -0.66385,0.10768 -0.19641,0.101567 -0.44268,0.306848 -0.54728,0.45618 -0.10459,0.149332 -0.19017,0.509667 -0.19017,0.800744 0,0.291078 0.0584,0.638387 0.12981,0.771798 0.0714,0.133412 0.24463,0.285036 0.38494,0.336943 0.14032,0.05191 0.38021,0.07046 0.53308,0.04124 0.15288,-0.02922 0.36686,-0.151378 0.47553,-0.271454 z m -2.29427,-2.146457 c 0.32347,-0.242421 0.85301,-0.694797 1.17675,-1.005278 0.32374,-0.310482 0.79716,-0.811263 1.05205,-1.112846 l 0.46342,-0.548334 -0.74742,-0.0059 c -0.5933,-0.0047 -0.90261,-0.08579 -1.50011,-0.393292 -0.41398,-0.213059 -0.78735,-0.44344 -0.82969,-0.511959 -0.0423,-0.06852 -0.15601,-0.124578 -0.25258,-0.124578 -0.146,0 -0.17559,0.349106 -0.17559,2.071483 0,1.185201 0.0481,2.071483 0.11252,2.071483 0.0619,0 0.37718,-0.198345 0.70065,-0.440766 z M 24.696766,22.606512 c -0.226458,-0.09831 -0.731679,-0.373089 -1.122712,-0.610629 l -0.710971,-0.431892 -0.0433,-2.705067 c -0.02381,-1.487787 -0.06693,-2.812633 -0.09581,-2.944103 -0.03647,-0.166032 0.02192,-0.253502 0.191197,-0.286403 0.134037,-0.02605 0.763337,-0.240725 1.398444,-0.477049 0.635107,-0.236325 1.491703,-0.634393 1.903547,-0.884597 l 0.748807,-0.454916 0.950314,0.536206 c 0.522673,0.294913 1.036912,0.520118 1.142752,0.500456 0.105841,-0.01966 0.279128,-0.209052 0.385082,-0.420867 0.140597,-0.281069 0.239051,-0.356438 0.364409,-0.278963 0.143799,0.08887 0.132273,0.171473 -0.07079,0.507329 l -0.242556,0.401172 v 2.315187 c 0,1.273353 0.04046,2.659609 0.08992,3.080568 l 0.08992,0.765381 -1.598074,0.788232 -1.598074,0.788231 -0.68518,-0.0048 c -0.376849,-0.0026 -0.870464,-0.0852 -1.096922,-0.183507 z m 2.300448,-3.584594 v -2.554351 l -0.740503,-0.502866 c -0.407277,-0.276576 -0.776602,-0.466767 -0.820722,-0.422646 -0.04412,0.04412 -0.07845,1.126518 -0.0763,2.405329 l 0.0039,2.325111 0.725411,0.64893 c 0.398976,0.356912 0.766536,0.650261 0.8168,0.651887 0.05026,0.0016 0.09139,-1.146501 0.09139,-2.551394 z m 47.415151,3.584594 c -0.226459,-0.09831 -0.731679,-0.373089 -1.122713,-0.610629 l -0.71097,-0.431892 -0.0433,-2.705067 c -0.02381,-1.487787 -0.06693,-2.812633 -0.09581,-2.944103 -0.03647,-0.166032 0.02192,-0.253502 0.191197,-0.286403 0.134038,-0.02605 0.763337,-0.240725 1.398444,-0.477049 0.635107,-0.236325 1.491703,-0.634393 1.903547,-0.884597 l 0.748807,-0.454916 0.950315,0.536206 c 0.522673,0.294913 1.036911,0.520118 1.142752,0.500456 0.10584,-0.01966 0.279127,-0.209052 0.385082,-0.420867 0.140596,-0.281069 0.239051,-0.356438 0.364409,-0.278963 0.143799,0.08887 0.132273,0.171473 -0.07079,0.507329 l -0.242558,0.401172 v 2.315187 c 0,1.273353 0.04046,2.659609 0.08992,3.080568 l 0.08992,0.765381 -1.598074,0.788232 -1.598074,0.788231 -0.68518,-0.0048 c -0.376848,-0.0026 -0.870463,-0.0852 -1.096921,-0.183507 z m 2.300447,-3.584594 v -2.554351 l -0.740503,-0.502866 c -0.407276,-0.276576 -0.776601,-0.466767 -0.820722,-0.422646 -0.04412,0.04412 -0.07845,1.126518 -0.0763,2.405329 l 0.0039,2.325111 0.725411,0.64893 c 0.398975,0.356912 0.766535,0.650261 0.816799,0.651887 0.05026,0.0016 0.09139,-1.146501 0.09139,-2.551394 z m 63.743308,3.584594 c -0.22646,-0.09831 -0.73168,-0.373089 -1.12271,-0.610629 l -0.71097,-0.431892 -0.0433,-2.705067 c -0.0238,-1.487787 -0.0669,-2.812633 -0.0958,-2.944103 -0.0365,-0.166032 0.0219,-0.253502 0.1912,-0.286403 0.13404,-0.02605 0.76334,-0.240725 1.39844,-0.477049 0.63511,-0.236325 1.49171,-0.634393 1.90355,-0.884597 l 0.74881,-0.454916 0.95031,0.536206 c 0.52268,0.294913 1.03691,0.520118 1.14275,0.500456 0.10585,-0.01966 0.27913,-0.209052 0.38509,-0.420867 0.14059,-0.281069 0.23905,-0.356438 0.36441,-0.278963 0.14379,0.08887 0.13227,0.171473 -0.0708,0.507329 l -0.24255,0.401172 v 2.315187 c 0,1.273353 0.0405,2.659609 0.0899,3.080568 l 0.0899,0.765381 -1.59807,0.788232 -1.59808,0.788231 -0.68517,-0.0048 c -0.37685,-0.0026 -0.87047,-0.0852 -1.09693,-0.183507 z m 2.30045,-3.584594 v -2.554351 l -0.7405,-0.502866 c -0.40728,-0.276576 -0.7766,-0.466767 -0.82072,-0.422646 -0.0441,0.04412 -0.0785,1.126518 -0.0763,2.405329 l 0.004,2.325111 0.72541,0.64893 c 0.39898,0.356912 0.76654,0.650261 0.8168,0.651887 0.0503,0.0016 0.0914,-1.146501 0.0914,-2.551394 z m 5.17921,3.225414 -0.85246,-0.279434 -0.32394,0.230667 c -0.17817,0.126867 -0.41144,0.230667 -0.51838,0.230667 -0.10693,0 -0.19443,-0.07574 -0.19443,-0.168315 0,-0.09257 0.19998,-0.320846 0.4444,-0.507272 l 0.44439,-0.338956 -0.0651,-4.683849 c -0.0534,-3.840025 -0.0966,-4.71531 -0.23976,-4.858476 l -0.17463,-0.174626 -0.32648,0.256809 -0.32648,0.256809 v -0.228692 c 0,-0.12578 0.17004,-0.499885 0.37786,-0.831345 0.20783,-0.331459 0.51967,-0.753444 0.69299,-0.937746 0.17331,-0.184301 0.43601,-0.3350922 0.58377,-0.3350922 0.14796,0 0.55073,0.2536072 0.8965,0.5644902 l 0.62785,0.564491 0.27661,-0.259861 c 0.15214,-0.142923 0.34609,-0.259861 0.43101,-0.259861 0.10279,0 0.063,0.147852 -0.11894,0.44228 l -0.27335,0.44228 -0.0108,4.34041 c -0.009,3.446334 0.0241,4.422944 0.15827,4.741085 0.093,0.220371 0.27634,0.458111 0.40751,0.528311 0.18986,0.101611 0.297,0.07267 0.52542,-0.141925 0.15782,-0.148258 0.36401,-0.239985 0.45821,-0.203837 0.13043,0.05005 0.15034,0.191736 0.0835,0.594213 -0.0483,0.290669 -0.12921,0.626476 -0.17984,0.746237 -0.0506,0.119761 -0.24719,0.29797 -0.43679,0.396019 -0.18961,0.09805 -0.60792,0.1728 -0.92959,0.166112 -0.32167,-0.0067 -0.96846,-0.137904 -1.43731,-0.291593 z"
       id="path1"
       inkscape:export-filename="path1.svg"
       inkscape:export-xdpi="150"
       inkscape:export-ydpi="150" /></g></svg>
