<?xml version="1.0" encoding="UTF-8" standalone="no"?>
<!-- Created with Inkscape (http://www.inkscape.org/) -->

<svg
   width="13.021623mm"
   height="14.610464mm"
   viewBox="0 0 13.021623 14.610464"
   version="1.1"
   id="svg1"
   xml:space="preserve"
   sodipodi:docname="path1.svg"
   xmlns:inkscape="http://www.inkscape.org/namespaces/inkscape"
   xmlns:sodipodi="http://sodipodi.sourceforge.net/DTD/sodipodi-0.dtd"
   xmlns="http://www.w3.org/2000/svg"
   xmlns:svg="http://www.w3.org/2000/svg"><sodipodi:namedview
     id="namedview1"
     pagecolor="#505050"
     bordercolor="#eeeeee"
     borderopacity="1"
     inkscape:showpageshadow="0"
     inkscape:pageopacity="0"
     inkscape:pagecheckerboard="0"
     inkscape:deskcolor="#505050"
     inkscape:document-units="mm" /><defs
     id="defs1" /><g
     inkscape:label="Layer 1"
     inkscape:groupmode="layer"
     id="layer1"
     transform="translate(-8.9650142,-8.5381088)"><path
       style="fill:#000000"
       d="M 13.692009,22.971857 C 13.310569,22.879355 12.63954,22.640921 12.200833,22.442001 11.738245,22.232254 11.116109,21.808826 10.719772,21.433988 10.343896,21.0785 9.898189,20.551873 9.7293114,20.263705 9.5604339,19.975537 9.3189555,19.407841 9.1926928,19.002158 9.0457106,18.529904 8.9638089,17.906813 8.9650276,17.270131 c 0.00105,-0.546932 0.07567,-1.296006 0.1658295,-1.664608 0.090159,-0.368603 0.2857456,-0.97177 0.4346363,-1.340372 0.1488907,-0.368602 0.5814766,-1.102075 0.9613006,-1.62994 0.379825,-0.527865 1.004961,-1.302932 1.38919,-1.722373 0.38423,-0.41944 0.964781,-0.9334262 1.290114,-1.1421922 0.325333,-0.208765 0.666902,-0.379573 0.759044,-0.379573 0.09214,0 -0.08283,0.260458 -0.388831,0.578797 -0.305998,0.3183382 -0.646646,0.7143722 -0.756994,0.8800762 -0.110349,0.165704 -0.200634,0.371329 -0.200634,0.456945 0,0.09205 0.150805,0.155665 0.369031,0.155665 0.202966,0 0.710175,-0.172144 1.12713,-0.382542 0.416955,-0.210398 1.36957,-0.729616 2.116922,-1.1538182 0.747353,-0.424201 1.672635,-0.910058 2.056183,-1.079681 0.383548,-0.169623 0.767641,-0.308406 0.853541,-0.308406 0.09489,0 0.188872,0.237688 0.239477,0.60563 0.04581,0.333096 0.20175,0.840304 0.346527,1.1271302 0.218328,0.43254 0.330801,0.528016 0.659329,0.55969 l 0.396098,0.03819 0.132795,-0.342819 c 0.07404,-0.191139 0.10103,-0.6212752 0.061,-0.9721742 -0.03949,-0.346146 -0.108017,-0.723753 -0.15229,-0.839128 -0.05637,-0.14689 -0.02902,-0.193481 0.09123,-0.155425 0.09445,0.02989 0.267605,0.242997 0.384783,0.473571 0.117179,0.230574 0.211933,0.665976 0.210565,0.9675592 -0.0014,0.301584 -0.106828,0.778159 -0.234356,1.059056 -0.168616,0.371398 -0.374736,0.583607 -0.755574,0.777896 -0.335184,0.170998 -0.810014,0.282138 -1.319067,0.308743 -0.437449,0.02286 -0.836487,0.04293 -0.886751,0.0446 -0.05026,0.0017 -0.09139,2.059288 -0.09139,4.572484 v 4.569449 h 0.219847 c 0.120917,0 0.465727,-0.155932 0.766244,-0.346514 0.300517,-0.190583 0.751778,-0.586457 1.0028,-0.879721 0.251023,-0.293263 0.598574,-0.823789 0.772337,-1.178946 0.241454,-0.493516 0.330321,-0.898124 0.376975,-1.716357 0.04449,-0.78024 0.0073,-1.255649 -0.137282,-1.752833 -0.10908,-0.375219 -0.198326,-0.714903 -0.198326,-0.754852 0,-0.03995 0.112464,-0.07264 0.249921,-0.07264 0.173411,0 0.308095,0.139228 0.439945,0.454789 0.104512,0.250134 0.218378,0.868483 0.253034,1.374109 0.04788,0.698486 5.96e-4,1.166144 -0.196822,1.946826 -0.142909,0.565128 -0.437781,1.32698 -0.655272,1.693003 -0.21749,0.366024 -0.671142,0.944007 -1.008115,1.284407 -0.336974,0.3404 -0.945244,0.795747 -1.351712,1.011882 -0.406468,0.216135 -1.090347,0.475783 -1.51973,0.576996 -0.429378,0.101212 -1.246775,0.180265 -1.816433,0.175672 -0.569658,-0.0046 -1.347829,-0.08403 -1.729269,-0.176534 z m 4.015376,-6.239484 0.03185,-4.904823 -0.437141,-0.456664 -0.437141,-0.456664 0.06011,3.32146 c 0.03475,1.920188 0.01145,3.497662 -0.05522,3.739116 -0.06343,0.22971 -0.277579,0.554187 -0.475896,0.721059 -0.198316,0.166873 -0.676504,0.391261 -1.062639,0.498641 -0.386136,0.10738 -0.962523,0.312746 -1.280861,0.456369 -0.318339,0.143623 -0.578797,0.300912 -0.578797,0.349532 0,0.04862 0.203123,0.266745 0.451384,0.484721 0.248262,0.217977 0.737721,0.52741 1.087687,0.68763 0.349966,0.16022 0.873385,0.339215 1.163154,0.397768 0.289768,0.05855 0.746185,0.09751 1.01426,0.08657 l 0.487407,-0.01989 z m -4.368688,2.13269 c 0.07131,-0.217811 0.188686,-0.697603 0.260836,-1.066205 0.086,-0.439353 0.10261,-1.598123 0.04823,-3.364301 l -0.08295,-2.694114 -0.503525,0.147545 c -0.409881,0.120106 -0.529165,0.22457 -0.641393,0.561706 -0.07583,0.227788 -0.231305,1.063861 -0.345508,1.857941 -0.166918,1.160626 -0.181603,1.5933 -0.07488,2.206163 0.07302,0.41931 0.242961,1.082676 0.377647,1.474148 0.134685,0.391471 0.327643,0.838074 0.428795,0.992451 0.101151,0.154376 0.233228,0.280684 0.293505,0.280684 0.06028,0 0.167937,-0.178208 0.239247,-0.396018 z"
       id="path1"
       inkscape:export-filename="path1.svg"
       inkscape:export-xdpi="150"
       inkscape:export-ydpi="150"
       sodipodi:nodetypes="csssscssscsscsssscsscsscsscsscssccscssssscssscssssscccccccscsssssssscccsscccscssscc" /></g></svg>
